<svg xmlns="http://www.w3.org/2000/svg" width="99" height="98" viewBox="0 0 99 98">
  <g id="Group_34" data-name="Group 34" transform="translate(-3001 1185)">
    <g id="Group_32" data-name="Group 32" transform="translate(0 -1)">
      <g id="Rectangle_17" data-name="Rectangle 17" transform="translate(3001 -1132)" fill="none" stroke="#2510d7" stroke-width="4">
        <rect width="46" height="46" rx="10" stroke="none"/>
        <rect x="2" y="2" width="42" height="42" rx="8" fill="none"/>
      </g>
      <g id="Group_31" data-name="Group 31" transform="translate(-1 -1)">
        <circle id="Ellipse_4" data-name="Ellipse 4" cx="3.5" cy="3.5" r="3.5" transform="translate(3012 -1121)" fill="#2510d7"/>
        <circle id="Ellipse_4-2" data-name="Ellipse 4" cx="3.5" cy="3.5" r="3.5" transform="translate(3032 -1121)" fill="#2510d7"/>
        <circle id="Ellipse_4-3" data-name="Ellipse 4" cx="3.5" cy="3.5" r="3.5" transform="translate(3012 -1101)" fill="#2510d7"/>
        <circle id="Ellipse_4-4" data-name="Ellipse 4" cx="3.5" cy="3.5" r="3.5" transform="translate(3032 -1101)" fill="#2510d7"/>
      </g>
    </g>
    <g id="Group_33" data-name="Group 33" transform="translate(53 -53)">
      <g id="Rectangle_17-2" data-name="Rectangle 17" transform="translate(3001 -1132)" fill="none" stroke="#2510d7" stroke-width="4">
        <rect width="46" height="46" rx="10" stroke="none"/>
        <rect x="2" y="2" width="42" height="42" rx="8" fill="none"/>
      </g>
      <g id="Group_31-2" data-name="Group 31" transform="translate(-1 -1)">
        <circle id="Ellipse_4-5" data-name="Ellipse 4" cx="3.5" cy="3.5" r="3.5" transform="translate(3012 -1121)" fill="#2510d7"/>
        <circle id="Ellipse_4-6" data-name="Ellipse 4" cx="3.5" cy="3.5" r="3.5" transform="translate(3022 -1111)" fill="#2510d7"/>
        <circle id="Ellipse_4-7" data-name="Ellipse 4" cx="3.5" cy="3.5" r="3.5" transform="translate(3032 -1101)" fill="#2510d7"/>
      </g>
    </g>
  </g>
</svg>
