<svg xmlns="http://www.w3.org/2000/svg" width="263" height="204" viewBox="0 0 263 204">
  <g id="Group_37" data-name="Group 37" transform="translate(-3232 1866)">
    <rect id="Rectangle_21" data-name="Rectangle 21" width="263" height="204" transform="translate(3232 -1866)" fill="#ebf0f2"/>
    <g id="Group_36" data-name="Group 36" transform="translate(211 -655)">
      <g id="Group_34" data-name="Group 34" transform="translate(102 -14)">
        <g id="Group_32" data-name="Group 32" transform="translate(0 -1)">
          <g id="Rectangle_17" data-name="Rectangle 17" transform="translate(3001 -1132)" fill="none" stroke="#2510d7" stroke-width="4">
            <rect width="46" height="46" rx="10" stroke="none"/>
            <rect x="2" y="2" width="42" height="42" rx="8" fill="none"/>
          </g>
          <g id="Group_31" data-name="Group 31" transform="translate(-1 -1)">
            <circle id="Ellipse_4" data-name="Ellipse 4" cx="3.5" cy="3.5" r="3.5" transform="translate(3012 -1121)" fill="#2510d7"/>
            <circle id="Ellipse_4-2" data-name="Ellipse 4" cx="3.5" cy="3.5" r="3.5" transform="translate(3032 -1121)" fill="#2510d7"/>
            <circle id="Ellipse_4-3" data-name="Ellipse 4" cx="3.5" cy="3.5" r="3.5" transform="translate(3012 -1101)" fill="#2510d7"/>
            <circle id="Ellipse_4-4" data-name="Ellipse 4" cx="3.5" cy="3.5" r="3.5" transform="translate(3032 -1101)" fill="#2510d7"/>
          </g>
        </g>
        <g id="Group_33" data-name="Group 33" transform="translate(53 -53)">
          <g id="Rectangle_17-2" data-name="Rectangle 17" transform="translate(3001 -1132)" fill="none" stroke="#2510d7" stroke-width="4">
            <rect width="46" height="46" rx="10" stroke="none"/>
            <rect x="2" y="2" width="42" height="42" rx="8" fill="none"/>
          </g>
          <g id="Group_31-2" data-name="Group 31" transform="translate(-1 -1)">
            <circle id="Ellipse_4-5" data-name="Ellipse 4" cx="3.5" cy="3.5" r="3.5" transform="translate(3012 -1121)" fill="#2510d7"/>
            <circle id="Ellipse_4-6" data-name="Ellipse 4" cx="3.5" cy="3.5" r="3.5" transform="translate(3022 -1111)" fill="#2510d7"/>
            <circle id="Ellipse_4-7" data-name="Ellipse 4" cx="3.5" cy="3.5" r="3.5" transform="translate(3032 -1101)" fill="#2510d7"/>
          </g>
        </g>
      </g>
      <g id="Group_35" data-name="Group 35" transform="translate(78.5 49)">
        <rect id="Rectangle_18" data-name="Rectangle 18" width="12" height="12" transform="translate(3065.515 -1077.515) rotate(-45)" fill="#2510d7"/>
        <rect id="Rectangle_19" data-name="Rectangle 19" width="5" height="5" transform="translate(3113.515 -1077.464) rotate(-45)" fill="#2510d7"/>
        <rect id="Rectangle_20" data-name="Rectangle 20" width="5" height="5" transform="translate(3027.515 -1077.464) rotate(-45)" fill="#2510d7"/>
        <line id="Line_5" data-name="Line 5" x2="89" transform="translate(3116.5 -1077.5)" fill="none" stroke="#2510d7" stroke-width="1"/>
        <line id="Line_6" data-name="Line 6" x2="89" transform="translate(2942.5 -1077.5)" fill="none" stroke="#2510d7" stroke-width="1"/>
      </g>
    </g>
  </g>
</svg>
